<?xml version="1.0" encoding="UTF-8"?><svg id="Layer_1" xmlns="http://www.w3.org/2000/svg" viewBox="0 0 60 57.61"><path d="M18.53,27.25c2.48,0,3.94-1.65,3.94-3.76s-1.47-3.76-3.94-3.76-3.85,1.74-3.85,3.76,1.38,3.76,3.85,3.76Zm22.94,0c2.48,0,3.94-1.65,3.94-3.76s-1.47-3.76-3.94-3.76-3.85,1.74-3.85,3.76,1.38,3.76,3.85,3.76Zm-1.28,10.83c-2.48,2.84-6.33,4.31-10.09,4.31-4.04,0-7.89-1.47-10.28-4.31l2.02-1.93c2.29,2.29,5.14,3.49,8.26,3.49,2.94,0,5.96-1.19,8.07-3.49l2.02,1.93Zm1.1-8.07c-4.22,0-6.61-2.94-6.61-6.51s2.39-6.51,6.61-6.51,6.88,2.94,6.88,6.51-2.48,6.51-6.88,6.51Zm-22.57,0c-4.22,0-6.97-2.94-6.97-6.51s2.75-6.51,6.97-6.51,6.79,2.94,6.79,6.51-2.57,6.51-6.79,6.51ZM0,28.81c0,15.78,10.55,28.81,29.63,28.81s30.37-12.84,30.37-28.62S48.81,0,29.63,0,0,12.57,0,28.81Z"/></svg>